# xmcd
#
# Track frame offsets:
#	150
#	21027
#	36012
#	52255
#	71102
#	92790
#	122917
#	138717
#	160035
#	181427
#
# Disc length: 2631 seconds
#
# Revision: 1
# Processed by: cddbd v1.5.2PL0 Copyright (c) Steve Scherf et al.
# Submitted via: audiograbber 1.83.01
#
DISCID=900a450a
DTITLE=Brides Of Jesus - For Real
DYEAR=1997
DGENRE=Blues
TTITLE0=Sassy
TTITLE1=Earle
TTITLE2=Two Days In The Saddle
TTITLE3=City Rain
TTITLE4=Hollywood
TTITLE5=Candle
TTITLE6=For Real
TTITLE7=Drift Away
TTITLE8=Low Down Dirty Me
TTITLE9=Sing A Simple Song
EXTD=
EXTT0=
EXTT1=
EXTT2=
EXTT3=
EXTT4=
EXTT5=
EXTT6=
EXTT7=
EXTT8=
EXTT9=
PLAYORDER=
